<svg xmlns="http://www.w3.org/2000/svg" xmlns:xlink="http://www.w3.org/1999/xlink" viewBox="0 0 328.63 110" style="enable-background:new 0 0 328.63 110;">
<style type="text/css">
	.st0{fill:#FFFFFF;}
</style>
<path class="st0" d="M121.79,64.55c0-11.02-6.53-19.76-18.45-19.76c-12.49,0-21.15,8.98-21.15,21.8c0,11.84,8.57,21.8,22.37,21.8
	c10.37,0,16.74-6.29,16.74-6.29l-4.33-7.19c0,0-4.98,4.65-11.68,4.65c-6.29,0-11.68-3.84-12.49-11.19h28.74
	C121.54,68.39,121.79,65.77,121.79,64.55 M93.13,61.2c1.14-5.23,4.9-8.41,10.21-8.41c4.25,0,7.68,3.43,7.84,8.41H93.13z"/>
<path class="st0" d="M149.24,44.79c-8.82,0-12.49,5.8-12.49,5.8h-0.16c0,0,0.16-1.47,0.16-3.51V34.99c0-3.84-1.71-5.55-5.55-5.55
	h-9.88v8.82h3.27c1.14,0,1.8,0.57,1.8,1.8v47.36h9.8v-2.12c0-1.63-0.16-2.78-0.16-2.78h0.16c0,0,3.76,5.88,12.41,5.88
	c11.02,0,19.11-8.57,19.11-21.8C167.7,53.69,160.51,44.79,149.24,44.79 M146.79,79.66c-6.94,0-10.37-6.37-10.37-12.82
	c0-9.23,5.06-13.15,10.45-13.15c6.12,0,10.37,5.14,10.37,13.06C157.24,75,152.43,79.66,146.79,79.66"/>
<path class="st0" d="M207.9,45.77c-3.27,0-4.57,1.96-4.57,3.84v1.06h-0.16c0,0-3.18-5.88-12.82-5.88c-12,0-18.45,9.31-18.45,20.74
	c0,11.43,6.78,21.07,18.7,21.07c5.55,0,9.15-1.88,11.6-5.39h0.16c0,0-0.08,1.22-0.08,2.2v1.96c0,7.51-5.47,10.21-11.76,10.21
	c-6.37,0-11.51-2.78-11.51-2.78l-3.18,8.17c4,2.12,9.55,3.59,14.78,3.59c10.86,0,21.97-5.39,21.97-19.68V56.22
	c0-1.06,0.73-1.63,1.8-1.63h3.18v-8.82H207.9z M192.79,77.86c-6.7,0-10.37-5.39-10.37-12.66c0-7.02,3.43-11.6,9.72-11.6
	c5.63,0,10.37,2.53,10.37,12C202.51,75,197.77,77.86,192.79,77.86"/>
<path class="st0" d="M240.19,44.79c-12.66,0-22.78,9.06-22.78,21.8c0,12.82,10.12,21.8,22.78,21.8c12.74,0,22.86-8.98,22.86-21.8
	C263.05,53.85,252.92,44.79,240.19,44.79 M240.19,79.57c-6.7,0-12.33-5.23-12.33-12.98c0-7.68,5.63-12.98,12.33-12.98
	c6.78,0,12.41,5.31,12.41,12.98C252.6,74.35,246.96,79.57,240.19,79.57"/>
<path class="st0" d="M305.04,78.68c-1.14,0-1.8-0.65-1.8-1.8V61.37c0-9.31-4.08-16.57-17.96-16.57c-4.33,0-15.27,0.82-15.27,8.57
	v4.41h9.63v-2.2c0-2.29,3.68-2.78,5.55-2.78c5.31,0,7.68,2.2,7.68,8.17v0.33h-1.31c-6.78,0-24.74,1.06-24.74,14.13
	c0,8.33,6.78,12.98,14.21,12.98c9.39,0,12.57-7.35,12.57-7.35h0.16c0,0-0.08,0.73-0.08,1.8c0,2.45,1.47,4.57,5.31,4.57h9.31v-8.74
	H305.04z M293.04,69.37c0,5.06-3.92,10.94-9.47,10.94c-4.24,0-6.29-2.61-6.29-5.39c0-5.8,8.57-6.53,13.96-6.53h1.8V69.37z"/>
<path class="st0" d="M313.28,40.05c0-1.22-0.65-1.8-1.8-1.8h-3.27v-8.82h9.88c3.84,0,5.55,1.71,5.55,5.55v41.89
	c0,1.14,0.65,1.8,1.8,1.8h3.19v8.74h-9.8c-3.92,0-5.55-1.63-5.55-5.55V40.05z"/>
<path class="st0" d="M76.92,45.77c-3.43,0-5.06,1.06-5.88,4.25L65,73.12c-0.57,2.21-0.82,4.41-0.82,4.41h-0.16
	c0,0-0.25-2.2-0.9-4.41l-7.76-27.19h-9.15l-7.68,27.19c-0.65,2.21-0.98,4.41-0.98,4.41H37.4c0,0-0.24-2.2-0.82-4.41l-3.16-11.94
	c-2.18-3.38-5.67-5.08-9.45-5.08c-0.13,0-0.38,0.01-0.38,0.01l0.19,0.79l7.75,30.51h11.09l7.02-23.76c0.65-2.2,1.06-4.49,1.06-4.49
	h0.16c0,0,0.33,2.29,0.98,4.49l7.1,23.76h11.01l7.96-31.35c0.49-1.22,1.06-1.47,2.29-1.47h1.81v-8.82H76.92z"/>
<path class="st0" d="M23.1,54.59c4.18,0,6.42,0.12,10.33,6.63l-2.97-11.2c-0.82-3.19-2.45-4.25-5.88-4.25H10.8v8.82h10.49H23.1z"/>
</svg>
