<svg width="477" height="113" viewBox="0 0 477 113"><g><g><g><path fill="#494949" d="M19.267 40.252c-.611-1.835-1.59-2.202-3.425-2.202H.13V24.84h20.64c5.139 0 7.585 1.591 8.808 6.361l9.173 34.614c.857 3.303 1.224 6.605 1.224 6.605h.244s.489-3.302 1.468-6.605l11.497-40.73h13.7l11.619 40.73c.979 3.303 1.346 6.605 1.346 6.605h.245s.366-3.302 1.223-6.605l9.05-34.614c1.224-4.77 3.67-6.361 8.808-6.361h7.64v13.21h-2.711c-1.835 0-2.691.367-3.425 2.202L88.756 87.22h-16.49L61.624 51.627c-.978-3.302-1.467-6.727-1.467-6.727h-.245s-.612 3.425-1.59 6.727L47.802 87.22H31.19z"/></g><g><path fill="#494949" d="M166.38 52.973c0 1.835-.369 5.748-.369 5.748h-43.054c1.223 11.008 9.296 16.757 18.714 16.757 10.03 0 17.491-6.972 17.491-6.972l6.482 10.764s-9.54 9.418-25.074 9.418c-20.67 0-33.514-14.922-33.514-32.658 0-19.203 12.965-32.657 31.68-32.657 17.857 0 27.643 13.087 27.643 29.6zm-15.903-5.015c-.244-7.461-5.382-12.599-11.742-12.599-7.95 0-13.577 4.771-15.289 12.599z"/></g><g><path fill="#494949" d="M207.51 23.372c16.879 0 27.642 13.333 27.642 32.658 0 19.815-12.11 32.658-28.621 32.658-12.965 0-18.591-8.807-18.591-8.807h-.246s.246 1.713.246 4.16v3.18h-14.678V16.277c0-1.835-.98-2.69-2.692-2.69h-4.892V.377h14.8c5.749 0 8.318 2.568 8.318 8.317v18.102c0 3.058-.245 5.26-.245 5.26h.245s5.504-8.685 18.714-8.685zM203.84 75.6c8.44 0 15.656-6.972 15.656-19.325 0-11.864-6.36-19.57-15.533-19.57-8.073 0-15.657 5.871-15.657 19.692 0 9.663 5.138 19.203 15.534 19.203z"/></g><g><path fill="#494949" d="M309.805 24.84v13.21h-4.77c-1.59 0-2.69.857-2.69 2.447v42.932c0 21.405-16.636 29.478-32.905 29.478-7.828 0-16.145-2.202-22.138-5.382l4.77-12.231s7.705 4.158 17.246 4.158c9.418 0 17.613-4.036 17.613-15.29v-2.935c0-1.467.123-3.302.123-3.302h-.245c-3.67 5.259-9.05 8.073-17.369 8.073-17.857 0-28.009-14.434-28.009-31.557 0-17.124 9.663-31.068 27.643-31.068 14.433 0 19.203 8.807 19.203 8.807h.244v-1.591c0-2.813 1.957-5.748 6.85-5.748zm-37.062 48.07c7.461 0 14.556-4.281 14.556-18.347 0-14.19-7.095-17.98-15.535-17.98-9.417 0-14.555 6.849-14.555 17.369 0 10.885 5.504 18.958 15.534 18.958z"/></g><g><path fill="#494949" d="M343.74 23.373c19.081 0 34.248 13.576 34.248 32.657 0 19.204-15.167 32.658-34.248 32.658-18.959 0-34.126-13.454-34.126-32.658 0-19.081 15.167-32.657 34.126-32.657zm0 52.105c10.152 0 18.592-7.828 18.592-19.448 0-11.497-8.44-19.448-18.592-19.448-10.03 0-18.47 7.951-18.47 19.448 0 11.62 8.44 19.448 18.47 19.448z"/></g><g><path fill="#494949" d="M445.79 74.132V87.22h-13.943c-5.749 0-7.95-3.179-7.95-6.849 0-1.59.122-2.691.122-2.691h-.246s-4.769 11.008-18.835 11.008c-11.131 0-21.284-6.972-21.284-19.448 0-19.57 26.91-21.16 37.062-21.16h1.957v-.489c0-8.929-3.547-12.232-11.497-12.232-2.814 0-8.319.734-8.319 4.159v3.302h-14.432v-6.604c0-11.62 16.389-12.843 22.873-12.843 20.793 0 26.909 10.886 26.909 24.829v23.24c0 1.712.979 2.69 2.69 2.69zm-22.872-15.411h-2.691c-8.073 0-20.916 1.101-20.916 9.785 0 4.159 3.058 8.073 9.418 8.073 8.318 0 14.189-8.807 14.189-16.39z"/></g><g><path fill="#494949" d="M453.228 16.278c0-1.835-.98-2.69-2.69-2.69h-4.893V.377h14.8c5.749 0 8.317 2.568 8.317 8.317v62.747c0 1.711.979 2.69 2.69 2.69h4.77V87.22h-14.677c-5.871 0-8.317-2.446-8.317-8.317z"/></g><g><path fill="#03b8d6" d="M17.04 38.133c.5-.044 1.001-.083 1.512-.083 6.262 0 11.785 3.397 15.114 8.578L29.577 31.2c-1.223-4.77-3.669-6.36-8.807-6.36H.13v13.21h15.712c.448 0 .844.023 1.197.083z"/></g></g></g></svg>