<?xml version="1.0" encoding="utf-8"?>
<svg xmlns="http://www.w3.org/2000/svg" xmlns:xlink="http://www.w3.org/1999/xlink" version="1.1" id="Camada_1" x="0px" y="0px"
	 viewBox="0 0 299 288" style="enable-background:new 0 0 299 288; opacity: 0.4;" xml:space="preserve">
<style type="text/css">
	.st0{fill:none;stroke:#FFFFFF;stroke-miterlimit:10;}
</style>
<g>
	<path class="st0" d="M231.65,38.53c-0.55,0.32-1.1,0.64-1.68,0.92c-7.13,3.4-15.27,2.52-21.87-1.57l13.03,15.36
		c3.98,4.77,7.63,5.25,13.48,2.47l23.51-11.2l-7.17-15.05l-17.9,8.53C232.55,38.22,232.09,38.41,231.65,38.53z"/>
</g>
<g>
	<path class="st0" d="M161.87,42.61c0.02-0.63,0.05-1.27,0.13-1.91c0.96-7.84,6.06-14.24,13.05-17.62l-19.95,2.76
		c-6.16,0.8-8.53,3.62-9.31,10.06l-3.16,25.85l16.54,2.02l2.4-19.68C161.65,43.53,161.74,43.04,161.87,42.61z"/>
</g>
<g>
	<path class="st0" d="M50.64,34.94c0.56,0.29,1.13,0.58,1.67,0.93c6.69,4.2,10.32,11.53,10.4,19.3l5.97-19.23
		c1.89-5.92,0.34-9.26-5.15-12.7L41.48,9.39l-8.86,14.12l16.79,10.53C49.89,34.35,50.3,34.64,50.64,34.94z"/>
</g>
<g>
	<path class="st0" d="M106.06,92.44c-0.55,0.32-1.1,0.64-1.68,0.92c-7.13,3.4-15.27,2.52-21.87-1.57l13.03,15.36
		c3.98,4.77,7.63,5.25,13.48,2.47l23.51-11.2l-7.17-15.05l-17.9,8.53C106.96,92.13,106.5,92.32,106.06,92.44z"/>
</g>
<g>
	<path class="st0" d="M27.8,108.39c0.02-0.63,0.05-1.27,0.13-1.91c0.96-7.84,6.06-14.24,13.05-17.62l-19.95,2.76
		c-6.16,0.8-8.53,3.62-9.31,10.06l-3.16,25.85l16.54,2.02l2.4-19.68C27.59,109.31,27.67,108.82,27.8,108.39z"/>
</g>
<g>
	<path class="st0" d="M213.35,137c0.56,0.29,1.13,0.58,1.67,0.93c6.69,4.2,10.32,11.53,10.4,19.3l5.97-19.23
		c1.89-5.92,0.34-9.26-5.15-12.7l-22.06-13.84l-8.86,14.12l16.79,10.53C212.6,136.41,213.01,136.7,213.35,137z"/>
</g>
<g>
	<path class="st0" d="M268.77,194.51c-0.55,0.32-1.1,0.64-1.68,0.92c-7.13,3.4-15.27,2.52-21.87-1.57l13.03,15.36
		c3.98,4.77,7.63,5.25,13.48,2.47l23.51-11.2l-7.17-15.05l-17.9,8.53C269.67,194.2,269.21,194.39,268.77,194.51z"/>
</g>
<g>
	<path class="st0" d="M190.51,210.45c0.02-0.63,0.05-1.27,0.13-1.91c0.96-7.84,6.06-14.24,13.05-17.62l-19.95,2.76
		c-6.16,0.8-8.53,3.62-9.31,10.06l-3.16,25.85l16.54,2.02l2.4-19.68C190.29,211.38,190.38,210.89,190.51,210.45z"/>
</g>
<g>
	<path class="st0" d="M75.73,165.2c0.56,0.29,1.13,0.58,1.67,0.93c6.69,4.2,10.32,11.53,10.4,19.3l5.97-19.23
		c1.89-5.92,0.34-9.26-5.15-12.7l-22.06-13.84l-8.86,14.12l16.79,10.53C74.98,164.61,75.39,164.9,75.73,165.2z"/>
</g>
<g>
	<path class="st0" d="M112.74,228.1c-0.55,0.32-1.1,0.64-1.68,0.92c-7.13,3.4-15.27,2.52-21.87-1.57l13.03,15.36
		c3.98,4.77,7.63,5.25,13.48,2.47l23.51-11.2l-7.17-15.05l-17.9,8.53C113.63,227.79,113.17,227.98,112.74,228.1z"/>
</g>
<g>
	<path class="st0" d="M34.47,244.04c0.02-0.63,0.05-1.27,0.13-1.91c0.96-7.84,6.06-14.24,13.05-17.62l-19.95,2.76
		c-6.16,0.8-8.53,3.62-9.31,10.06l-3.16,25.85l16.54,2.02l2.4-19.68C34.26,244.97,34.35,244.48,34.47,244.04z"/>
</g>
<g>
	<path class="st0" d="M231.24,260.03c0.56,0.29,1.13,0.58,1.67,0.93c6.69,4.2,10.32,11.53,10.4,19.3l5.97-19.23
		c1.89-5.92,0.34-9.26-5.15-12.7l-22.06-13.84l-8.86,14.12l16.79,10.53C230.5,259.44,230.91,259.73,231.24,260.03z"/>
</g>
</svg>
