<svg xmlns="https://www.w3.org/2000/svg" xmlns:xlink="http://www.w3.org/1999/xlink" width="10" height="17" viewBox="0 0 10 17"><g><g opacity=".5"><path fill="#455b65" d="M1.598 16.217a.533.533 0 0 0 .355-.155L9.16 8.856a.533.533 0 0 0 .154-.356.533.533 0 0 0-.154-.356L1.953.938a.533.533 0 0 0-.355-.155.533.533 0 0 0-.356.155l-.773.773a.503.503 0 0 0-.155.356c0 .124.062.263.155.356L6.546 8.5.47 14.577a.533.533 0 0 0-.155.356c0 .124.062.263.155.356l.773.773a.533.533 0 0 0 .356.155z"/></g></g></svg>